<?xml version="1.0" encoding="utf-8"?>
<!-- Generator: Adobe Illustrator 15.1.0, SVG Export Plug-In . SVG Version: 6.00 Build 0)  -->
<!DOCTYPE svg PUBLIC "-//W3C//DTD SVG 1.1//EN" "http://www.w3.org/Graphics/SVG/1.1/DTD/svg11.dtd">
<svg version="1.1" id="Layer_1" xmlns="http://www.w3.org/2000/svg" xmlns:xlink="http://www.w3.org/1999/xlink" x="0px" y="0px"
	 width="128px" height="128px" viewBox="0 0 128 128" enable-background="new 0 0 128 128" xml:space="preserve">
<path fill="#FFFFFF" d="M4,64C4,30.863,30.861,4,64,4s60,26.863,60,60s-26.861,60-60,60S4,97.137,4,64z M64.456,94.455l22.5-22.5
	c2.197-2.198,3.296-5.079,3.294-7.959c0-2.877-1.099-5.755-3.294-7.951l-22.5-22.5c-2.199-2.197-5.081-3.296-7.96-3.295
	c-2.878,0.001-5.757,1.1-7.952,3.295c-2.197,2.197-3.294,5.078-3.294,7.957c0.002,2.878,1.099,5.757,3.294,7.953L63.09,64
	L48.544,78.545c-2.197,2.197-3.294,5.077-3.294,7.957c0.002,2.878,1.099,5.757,3.294,7.953c2.197,2.196,5.078,3.295,7.956,3.295
	S62.259,96.651,64.456,94.455z"/>
</svg>
