<?xml version="1.0" encoding="utf-8"?>
<!-- Generator: Adobe Illustrator 15.1.0, SVG Export Plug-In . SVG Version: 6.00 Build 0)  -->
<!DOCTYPE svg PUBLIC "-//W3C//DTD SVG 1.1//EN" "http://www.w3.org/Graphics/SVG/1.1/DTD/svg11.dtd">
<svg version="1.1" id="Layer_1" xmlns="http://www.w3.org/2000/svg" xmlns:xlink="http://www.w3.org/1999/xlink" x="0px" y="0px"
	 width="128px" height="128px" viewBox="0 0 128 128" enable-background="new 0 0 128 128" xml:space="preserve">
<path fill="#FFFFFF" d="M124,64c0,33.137-26.861,60-60,60S4,97.137,4,64S30.861,4,64,4S124,30.863,124,64z M63.544,33.545
	l-22.5,22.5c-2.197,2.198-3.296,5.079-3.294,7.959c0,2.877,1.099,5.755,3.294,7.951l22.5,22.5c2.199,2.197,5.081,3.296,7.96,3.295
	c2.878-0.001,5.757-1.1,7.952-3.295c2.197-2.197,3.294-5.078,3.294-7.957c-0.002-2.879-1.099-5.757-3.294-7.953L64.91,64
	l14.546-14.545c2.197-2.197,3.294-5.077,3.294-7.957c-0.002-2.878-1.099-5.757-3.294-7.953c-2.197-2.196-5.077-3.295-7.956-3.295
	C68.622,30.25,65.741,31.349,63.544,33.545z"/>
</svg>
