<?xml version="1.0" encoding="utf-8"?>
<!-- Generator: Adobe Illustrator 15.1.0, SVG Export Plug-In . SVG Version: 6.00 Build 0)  -->
<!DOCTYPE svg PUBLIC "-//W3C//DTD SVG 1.1//EN" "http://www.w3.org/Graphics/SVG/1.1/DTD/svg11.dtd">
<svg version="1.1" id="Layer_1" xmlns="http://www.w3.org/2000/svg" xmlns:xlink="http://www.w3.org/1999/xlink" x="0px" y="0px"
	 width="128px" height="128px" viewBox="0 0 128 128" enable-background="new 0 0 128 128" xml:space="preserve">
<path fill="#3B599A" d="M120,0H8C3.582,0,0,3.582,0,8v112c0,4.417,3.582,8,8,8h112c4.417,0,8-3.583,8-8V8C128,3.582,124.417,0,120,0
	z"/>
<path fill="#FFFFFF" d="M81.868,38.984h-7.147c-4.922,0-4.766,1.873-4.766,5.298v5.422h11.913L79.485,64h-9.53v38.119H53.279V64
	h-7.146V49.705h7.146v-6.733c0-10.717,5.349-17.091,17.989-17.091h10.601V38.984z"/>
</svg>
