<?xml version="1.0" encoding="utf-8"?>
<!-- Generator: Adobe Illustrator 16.2.0, SVG Export Plug-In . SVG Version: 6.00 Build 0)  -->
<!DOCTYPE svg PUBLIC "-//W3C//DTD SVG 1.1//EN" "http://www.w3.org/Graphics/SVG/1.1/DTD/svg11.dtd">
<svg version="1.1" id="Layer_1" xmlns="http://www.w3.org/2000/svg" xmlns:xlink="http://www.w3.org/1999/xlink" x="0px" y="0px"
	 width="128px" height="128px" viewBox="0 0 128 128" enable-background="new 0 0 128 128" xml:space="preserve">
<path fill="#3F729B" d="M120,0H8C3.583,0,0,3.583,0,8v112c0,4.418,3.583,8,8,8h112c4.418,0,8-3.582,8-8V8C128,3.583,124.418,0,120,0
	z"/>
<path fill="#FFFFFF" d="M107.603,42.199v54.502c0,3.011-2.44,5.451-5.45,5.451H25.848c-3.01,0-5.45-2.44-5.45-5.451V42.199
	c0-3.01,2.44-5.45,5.45-5.45h12.982l3.944-7.887c0.923-1.847,2.811-3.013,4.875-3.013h32.701c2.064,0,3.952,1.167,4.875,3.013
	l3.944,7.887h12.982C105.162,36.749,107.603,39.189,107.603,42.199z M64,91.251c12.041,0,21.801-9.76,21.801-21.801
	c0-12.04-9.76-21.801-21.801-21.801c-12.04,0-21.801,9.761-21.801,21.801C42.199,81.491,51.96,91.251,64,91.251z"/>
</svg>
