<?xml version="1.0" encoding="utf-8"?>
<!-- Generator: Adobe Illustrator 15.1.0, SVG Export Plug-In . SVG Version: 6.00 Build 0)  -->
<!DOCTYPE svg PUBLIC "-//W3C//DTD SVG 1.1//EN" "http://www.w3.org/Graphics/SVG/1.1/DTD/svg11.dtd">
<svg version="1.1" id="Layer_1" xmlns="http://www.w3.org/2000/svg" xmlns:xlink="http://www.w3.org/1999/xlink" x="0px" y="0px"
	 width="128px" height="128px" viewBox="0 0 128 128" enable-background="new 0 0 128 128" xml:space="preserve">
<g>
	<path fill="#006892" d="M128,8v112c0,4.418-3.582,8-8,8H8c-4.417,0-8-3.582-8-8V8c0-4.417,3.583-8,8-8h112
		C124.418,0,128,3.583,128,8z"/>
	<path fill="#FFFFFF" d="M104.781,88.469c-1.501,0-2.719-1.218-2.719-2.719V69.438c0-20.988-17.074-38.063-38.063-38.063
		c-20.988,0-38.063,17.074-38.063,38.063V85.75c0,1.501-1.217,2.719-2.719,2.719S20.5,87.251,20.5,85.75V69.438
		c0-23.986,19.514-43.5,43.5-43.5s43.5,19.514,43.5,43.5V85.75C107.5,87.251,106.282,88.469,104.781,88.469z M42.25,99.344V72.156
		c0-1.501-1.217-2.719-2.719-2.719h-5.438c-1.501,0-2.719,1.218-2.719,2.719v27.188c0,1.501,1.217,2.719,2.719,2.719h5.438
		C41.033,102.063,42.25,100.845,42.25,99.344z M96.625,99.344V72.156c0-1.501-1.218-2.719-2.719-2.719h-5.438
		c-1.501,0-2.719,1.218-2.719,2.719v27.188c0,1.501,1.218,2.719,2.719,2.719h5.438C95.407,102.063,96.625,100.845,96.625,99.344z"/>
</g>
</svg>
