<?xml version="1.0" encoding="utf-8"?>
<!-- Generator: Adobe Illustrator 15.1.0, SVG Export Plug-In . SVG Version: 6.00 Build 0)  -->
<!DOCTYPE svg PUBLIC "-//W3C//DTD SVG 1.1//EN" "http://www.w3.org/Graphics/SVG/1.1/DTD/svg11.dtd">
<svg version="1.1" id="Layer_1" xmlns="http://www.w3.org/2000/svg" xmlns:xlink="http://www.w3.org/1999/xlink" x="0px" y="0px"
	 width="128px" height="128px" viewBox="0 0 128 128" enable-background="new 0 0 128 128" xml:space="preserve">
<path fill="#F26722" d="M128,8v112c0,4.418-3.582,8-8,8H8c-4.417,0-8-3.582-8-8V8c0-4.417,3.583-8,8-8h112
	C124.418,0,128,3.583,128,8z"/>
<g>
	<g>
		<path fill="#FFFFFF" d="M102.145,95.209c0-38.242-31.113-69.354-69.354-69.354c-3.83,0-6.936,3.106-6.936,6.936
			c0,3.83,3.106,6.936,6.936,6.936c30.595,0,55.484,24.89,55.484,55.482c0,3.831,3.105,6.936,6.935,6.936
			C99.04,102.145,102.145,99.04,102.145,95.209z"/>
	</g>
	<g>
		<path fill="#FFFFFF" d="M74.402,95.209c0-22.945-18.666-41.612-41.612-41.612c-3.83,0-6.936,3.106-6.936,6.936
			c0,3.83,3.106,6.936,6.936,6.936c15.297,0,27.742,12.444,27.742,27.741c0,3.831,3.105,6.936,6.936,6.936
			C71.297,102.145,74.402,99.04,74.402,95.209z"/>
	</g>
	<circle fill="#FFFFFF" cx="36.258" cy="91.743" r="10.403"/>
</g>
</svg>
