<?xml version="1.0" encoding="utf-8"?>
<!-- Generator: Adobe Illustrator 15.1.0, SVG Export Plug-In . SVG Version: 6.00 Build 0)  -->
<!DOCTYPE svg PUBLIC "-//W3C//DTD SVG 1.1//EN" "http://www.w3.org/Graphics/SVG/1.1/DTD/svg11.dtd">
<svg version="1.1" id="Layer_1" xmlns="http://www.w3.org/2000/svg" xmlns:xlink="http://www.w3.org/1999/xlink" x="0px" y="0px"
	 width="128px" height="128px" viewBox="0 0 128 128" enable-background="new 0 0 128 128" xml:space="preserve">
<path fill="#2CA9E1" d="M120,0H8C3.583,0,0,3.583,0,8v112c0,4.418,3.583,8,8,8h112c4.418,0,8-3.582,8-8V8C128,3.583,124.418,0,120,0
	z"/>
<path fill="#FFFFFF" d="M110.934,34.879c-3.438,1.537-7.185,2.566-11.046,3.042c3.941-2.383,7.018-6.169,8.434-10.671
	c-3.689,2.213-7.806,3.814-12.192,4.675c-3.533-3.737-8.524-6.077-14.08-6.077c-10.638,0-19.263,8.629-19.263,19.267
	c0,1.505,0.183,2.979,0.504,4.379C47.294,48.7,33.088,41.03,23.598,29.373c-1.65,2.841-2.613,6.159-2.613,9.689
	c0,6.673,3.4,12.571,8.571,16.022c-3.163-0.105-6.125-0.972-8.708-2.397c0,0.072,0,0.146,0,0.229
	c0,9.341,6.633,17.113,15.446,18.885c-1.622,0.45-3.331,0.678-5.088,0.678c-1.237,0-2.43-0.116-3.621-0.36
	c2.455,7.683,9.577,13.241,17.996,13.377c-6.583,5.188-14.893,8.242-23.908,8.242c-1.558,0-3.107-0.092-4.606-0.268
	c8.519,5.489,18.634,8.682,29.525,8.682c35.42,0,54.762-29.358,54.762-54.813c0-0.839,0-1.665-0.011-2.489
	C105.112,42.146,108.332,38.754,110.934,34.879z"/>
</svg>
