<?xml version="1.0" encoding="utf-8"?>
<!-- Generator: Adobe Illustrator 16.2.0, SVG Export Plug-In . SVG Version: 6.00 Build 0)  -->
<!DOCTYPE svg PUBLIC "-//W3C//DTD SVG 1.1//EN" "http://www.w3.org/Graphics/SVG/1.1/DTD/svg11.dtd">
<svg version="1.1" id="Layer_1" xmlns="http://www.w3.org/2000/svg" xmlns:xlink="http://www.w3.org/1999/xlink" x="0px" y="0px"
	 width="784.958px" height="64.579px" viewBox="0 0 784.958 64.579" enable-background="new 0 0 784.958 64.579"
	 xml:space="preserve">
<g>
	<path fill="#FFFFFF" d="M0,45.485l17.854-3.213c1.499,5.049,5.354,7.573,11.566,7.573c4.834,0,7.252-1.285,7.252-3.855
		c0-1.346-0.559-2.394-1.675-3.145c-1.117-0.749-3.114-1.414-5.99-1.994c-10.987-2.105-18.041-4.856-21.16-8.254
		c-3.12-3.397-4.68-7.393-4.68-11.983c0-5.906,2.241-10.819,6.724-14.737C14.374,1.959,20.822,0,29.237,0
		c12.76,0,21.189,5.126,25.29,15.376l-15.927,4.819c-1.652-4.191-5.003-6.288-10.052-6.288c-4.192,0-6.288,1.301-6.288,3.901
		c0,1.163,0.474,2.065,1.423,2.708c0.948,0.643,2.785,1.254,5.508,1.833c7.498,1.586,12.823,2.988,15.976,4.208
		c3.153,1.22,5.783,3.307,7.893,6.261c2.11,2.955,3.165,6.438,3.165,10.449c0,6.339-2.57,11.476-7.711,15.41
		s-11.888,5.901-20.241,5.901C13.004,64.579,3.58,58.215,0,45.485z"/>
	<path fill="#FFFFFF" d="M77.161,0.964v62.651H57.929V0.964H77.161z"/>
	<path fill="#FFFFFF" d="M136.254,0.964l-18.21,29.061l21.102,33.591h-22.378l-11.569-19.729L93.52,63.615h-17.6l20.182-32.351
		L76.746,0.964h22.432l9.721,16.86l10.089-16.86H136.254z"/>
	<path fill="#FFFFFF" d="M210.655,0.964v62.651h-19.231V39.243h-14.688v24.372h-19.231V0.964h19.231v23.041h14.688V0.964H210.655z"
		/>
	<path fill="#FFFFFF" d="M242.879,64.579c-8.813,0-15.996-2.922-21.549-8.767c-5.554-5.844-8.331-13.662-8.331-23.454
		c0-9.363,2.654-17.097,7.963-23.202C226.271,3.053,233.638,0,243.063,0c8.721,0,15.827,2.877,21.32,8.629
		c5.492,5.753,8.239,13.434,8.239,23.041c0,9.945-2.77,17.916-8.308,23.913C258.775,61.581,251.63,64.579,242.879,64.579z
		 M242.787,50.351c3.243,0,5.577-1.415,7-4.245s2.134-8.01,2.134-15.537c0-10.893-2.922-16.34-8.767-16.34
		c-6.304,0-9.455,6.212-9.455,18.635C233.699,44.521,236.729,50.351,242.787,50.351z"/>
	<path fill="#FFFFFF" d="M300.478,15.973v47.643h-18.222V15.973h-12.989V0.964h44.2v15.009H300.478z"/>
	<path fill="#FFFFFF" d="M411.609,0.964l-16.617,62.651h-16.156l-8.765-34.562l-8.277,34.562H344.95L328.304,0.964H346.4
		l8.764,36.06l8.549-36.06h15.099l9.301,36.13l8.777-36.13H411.609z"/>
	<path fill="#FFFFFF" d="M458.365,48.652v14.963h-47.138V0.964h47.138v14.458h-28.273v9.088h22.857v13.907h-22.857v10.235H458.365z"
		/>
	<path fill="#FFFFFF" d="M508.61,48.652v14.963h-47.138V0.964h47.138v14.458h-28.273v9.088h22.857v13.907h-22.857v10.235H508.61z"/>
	<path fill="#FFFFFF" d="M568.219,63.615h-21.042l-10.832-23.677l-6.497,9.219v14.458h-18.13V0.964h18.13v25.905l17.278-25.905
		h17.283l-15.822,22.93L568.219,63.615z"/>
	<path fill="#FFFFFF" d="M614.481,48.652v14.963h-47.138V0.964h47.138v14.458h-28.273v9.088h22.857v13.907h-22.857v10.235H614.481z"
		/>
	<path fill="#FFFFFF" d="M671.151,63.615H655.5l-17.159-27.682c-2.202-3.55-4.423-7.862-6.662-12.938
		c1.01,4.039,1.515,7.467,1.515,10.281v30.339h-15.605V0.964h18.176l14.597,22.948c2.908,4.56,5.11,8.568,6.608,12.026
		c-0.979-5.354-1.469-10.832-1.469-16.432V0.964h15.651V63.615z"/>
	<path fill="#FFFFFF" d="M676.436,63.615V0.964h24.234c10.525,0,18.405,3.121,23.638,9.363s7.849,13.464,7.849,21.664
		c0,9.363-2.808,16.976-8.423,22.835s-12.905,8.789-21.87,8.789H676.436z M695.667,49.203h5.003c3.182,0,5.867-1.545,8.056-4.636
		c2.187-3.09,3.281-7.298,3.281-12.622c0-4.559-0.972-8.491-2.914-11.796c-1.944-3.305-4.751-4.957-8.423-4.957h-5.003V49.203z"/>
	<path fill="#FFFFFF" d="M728.732,45.485l17.854-3.213c1.499,5.049,5.354,7.573,11.566,7.573c4.834,0,7.252-1.285,7.252-3.855
		c0-1.346-0.559-2.394-1.675-3.145c-1.118-0.749-3.114-1.414-5.991-1.994c-10.986-2.105-18.04-4.856-21.159-8.254
		c-3.121-3.397-4.681-7.393-4.681-11.983c0-5.906,2.241-10.819,6.724-14.737S749.555,0,757.97,0c12.76,0,21.189,5.126,25.29,15.376
		l-15.927,4.819c-1.652-4.191-5.003-6.288-10.052-6.288c-4.192,0-6.288,1.301-6.288,3.901c0,1.163,0.474,2.065,1.423,2.708
		c0.948,0.643,2.785,1.254,5.509,1.833c7.498,1.586,12.822,2.988,15.976,4.208c3.152,1.22,5.783,3.307,7.893,6.261
		c2.11,2.955,3.165,6.438,3.165,10.449c0,6.339-2.57,11.476-7.711,15.41s-11.888,5.901-20.241,5.901
		C741.736,64.579,732.313,58.215,728.732,45.485z"/>
</g>
</svg>
