<?xml version="1.0" encoding="utf-8"?>
<!-- Generator: Adobe Illustrator 16.2.0, SVG Export Plug-In . SVG Version: 6.00 Build 0)  -->
<!DOCTYPE svg PUBLIC "-//W3C//DTD SVG 1.1//EN" "http://www.w3.org/Graphics/SVG/1.1/DTD/svg11.dtd">
<svg version="1.1" id="Layer_1" xmlns="http://www.w3.org/2000/svg" xmlns:xlink="http://www.w3.org/1999/xlink" x="0px" y="0px"
	 width="200px" height="200px" viewBox="0 0 200 200" enable-background="new 0 0 200 200" xml:space="preserve">
<circle fill="#00AEEF" cx="100" cy="100" r="99.213"/>
<g>
	<path fill="#FFFFFF" d="M34.234,89.176l-0.374-2.208c-0.205-1.209-0.589-2.043-1.154-2.502c-0.564-0.458-1.162-0.635-1.793-0.528
		c-1,0.169-1.64,0.541-1.921,1.116s-0.331,1.402-0.148,2.48l2.443,14.434c0.183,1.078,0.501,1.842,0.956,2.293
		c0.455,0.45,1.182,0.591,2.181,0.422c0.894-0.151,1.47-0.506,1.727-1.063c0.257-0.557,0.308-1.296,0.152-2.216l-0.581-3.431
		l4.891-0.828l0.554,3.273c0.169,1,0.178,1.971,0.027,2.917c-0.151,0.945-0.466,1.797-0.947,2.554
		c-0.48,0.758-1.148,1.405-2.004,1.941c-0.856,0.537-1.889,0.908-3.098,1.113c-1.289,0.218-2.432,0.215-3.429-0.009
		c-0.998-0.223-1.862-0.61-2.591-1.163c-0.729-0.553-1.321-1.25-1.774-2.094c-0.454-0.842-0.765-1.764-0.934-2.763l-2.483-14.671
		c-0.169-0.999-0.178-1.971-0.027-2.917c0.15-0.945,0.48-1.799,0.986-2.561c0.506-0.761,1.194-1.412,2.063-1.952
		c0.869-0.539,1.947-0.917,3.236-1.136c1.209-0.205,2.309-0.174,3.301,0.09c0.992,0.265,1.843,0.702,2.555,1.312
		c0.712,0.609,1.299,1.362,1.761,2.258s0.783,1.869,0.961,2.92l0.354,2.09L34.234,89.176z"/>
	<path fill="#FFFFFF" d="M44.659,106.925l-4.82-28.475l4.891-0.828l4.099,24.215l7.69-1.302l0.721,4.26L44.659,106.925z"/>
	<path fill="#FFFFFF" d="M59.077,104.484l-4.82-28.475l4.891-0.828l4.82,28.475L59.077,104.484z"/>
	<path fill="#FFFFFF" d="M73.357,82.554l-0.374-2.208c-0.205-1.209-0.589-2.043-1.154-2.502c-0.564-0.458-1.162-0.635-1.793-0.528
		c-1,0.169-1.64,0.541-1.921,1.116c-0.282,0.575-0.331,1.402-0.148,2.48l2.443,14.434c0.183,1.079,0.501,1.842,0.956,2.292
		c0.455,0.451,1.182,0.592,2.181,0.422c0.894-0.151,1.469-0.506,1.727-1.063c0.257-0.556,0.308-1.295,0.152-2.216l-0.581-3.431
		l4.891-0.828l0.554,3.273c0.169,1,0.178,1.972,0.027,2.917c-0.151,0.945-0.466,1.797-0.947,2.554s-1.148,1.404-2.004,1.941
		c-0.856,0.536-1.889,0.908-3.098,1.113c-1.288,0.218-2.432,0.215-3.429-0.009c-0.998-0.223-1.862-0.61-2.591-1.163
		s-1.321-1.25-1.774-2.094c-0.454-0.842-0.765-1.763-0.934-2.763L63.057,81.62c-0.169-0.999-0.178-1.971-0.027-2.917
		c0.151-0.945,0.48-1.799,0.986-2.561c0.506-0.761,1.195-1.412,2.063-1.952c0.869-0.539,1.948-0.917,3.236-1.136
		c1.209-0.205,2.31-0.174,3.302,0.09c0.991,0.265,1.843,0.702,2.555,1.312c0.711,0.609,1.298,1.362,1.761,2.258
		c0.462,0.896,0.783,1.869,0.961,2.92l0.354,2.09L73.357,82.554z"/>
	<path fill="#FFFFFF" d="M83.782,100.303l-4.819-28.475L83.853,71l1.782,10.53l0.079-0.013l3.345-11.398l4.89-0.828L90.46,80.795
		l8.979,16.858l-4.97,0.841l-6.226-12.577l-0.079,0.013l-1.201,3.448l1.709,10.097L83.782,100.303z"/>
	<path fill="#FFFFFF" d="M106.34,96.485l-4.819-28.475l4.89-0.828l1.962,11.595l5.207-0.881l-1.962-11.595l4.89-0.828l4.819,28.475
		l-4.89,0.828l-2.136-12.62l-5.207,0.881l2.136,12.62L106.34,96.485z"/>
	<path fill="#FFFFFF" d="M123.799,93.53l-4.82-28.475l13.096-2.216l0.721,4.259l-8.203,1.389l1.241,7.335l6.31-1.068l0.721,4.26
		l-6.31,1.068l1.415,8.361l8.756-1.482l0.721,4.259L123.799,93.53z"/>
	<path fill="#FFFFFF" d="M144.268,90.065l-4.891,0.828l-4.819-28.475l6.862-1.162c2.734-0.463,4.907-0.167,6.519,0.885
		s2.674,3.091,3.186,6.114c0.196,1.157,0.265,2.16,0.204,3.008c-0.059,0.849-0.205,1.583-0.438,2.204
		c-0.233,0.622-0.524,1.137-0.875,1.547c-0.35,0.411-0.72,0.745-1.108,0.999l6.324,12.196l-4.97,0.841l-5.466-11.205
		c-0.307,0.106-0.69,0.205-1.146,0.295c-0.459,0.092-0.911,0.175-1.358,0.25L144.268,90.065z M141.61,74.369l1.735-0.294
		c0.656-0.111,1.205-0.271,1.643-0.481c0.438-0.208,0.772-0.509,1.004-0.9c0.231-0.39,0.365-0.88,0.401-1.468
		c0.035-0.587-0.019-1.301-0.161-2.143c-0.284-1.683-0.755-2.786-1.412-3.311c-0.656-0.524-1.642-0.676-2.957-0.453l-1.734,0.294
		L141.61,74.369z"/>
	<path fill="#FFFFFF" d="M157.14,87.886l-4.819-28.475l13.094-2.216l0.721,4.259l-8.203,1.388l1.241,7.336l6.311-1.068l0.722,4.26
		l-6.311,1.068l1.415,8.361l8.756-1.482l0.722,4.259L157.14,87.886z"/>
	<path fill="#FFFFFF" d="M19.941,121.697l-4.732,0.801l-0.721-4.259l14.355-2.43l0.721,4.259l-4.732,0.801l4.099,24.216
		l-4.891,0.827L19.941,121.697z"/>
	<path fill="#FFFFFF" d="M31.352,122.484c-0.169-0.999-0.178-1.972-0.027-2.917c0.151-0.944,0.48-1.799,0.986-2.56
		c0.507-0.762,1.195-1.413,2.064-1.952c0.868-0.539,1.947-0.918,3.235-1.136s2.432-0.216,3.429,0.008s1.862,0.611,2.591,1.164
		c0.728,0.552,1.32,1.25,1.774,2.093c0.453,0.843,0.765,1.764,0.934,2.764l2.483,14.67c0.169,0.999,0.178,1.973,0.027,2.917
		c-0.152,0.945-0.48,1.799-0.987,2.561c-0.507,0.762-1.195,1.412-2.063,1.951c-0.869,0.539-1.948,0.918-3.236,1.137
		c-1.288,0.218-2.432,0.215-3.429-0.009c-0.998-0.223-1.862-0.61-2.591-1.164c-0.729-0.552-1.321-1.25-1.774-2.092
		c-0.454-0.843-0.765-1.765-0.935-2.764L31.352,122.484z M38.706,136.21c0.183,1.078,0.501,1.842,0.956,2.292
		c0.455,0.45,1.182,0.591,2.181,0.422c0.999-0.17,1.639-0.541,1.921-1.116c0.281-0.575,0.331-1.4,0.148-2.479l-2.443-14.435
		c-0.183-1.078-0.502-1.843-0.956-2.293c-0.456-0.45-1.182-0.59-2.181-0.421c-1,0.169-1.64,0.541-1.921,1.115
		c-0.282,0.574-0.331,1.402-0.148,2.479L38.706,136.21z"/>
	<path fill="#FFFFFF" d="M64.424,139.077l-4.891,0.827l-4.819-28.474l6.862-1.161c2.734-0.463,4.907-0.168,6.519,0.883
		c1.611,1.053,2.673,3.092,3.185,6.115c0.196,1.157,0.264,2.16,0.205,3.008c-0.06,0.848-0.206,1.584-0.438,2.203
		c-0.233,0.622-0.524,1.138-0.874,1.549c-0.35,0.41-0.72,0.744-1.109,0.998l6.324,12.195l-4.969,0.842l-5.466-11.204
		c-0.307,0.105-0.689,0.204-1.146,0.295c-0.458,0.092-0.911,0.174-1.358,0.25L64.424,139.077z M61.768,123.38l1.735-0.293
		c0.657-0.111,1.205-0.271,1.643-0.48c0.438-0.209,0.772-0.509,1.004-0.901c0.231-0.39,0.365-0.88,0.401-1.467
		c0.035-0.588-0.018-1.302-0.16-2.144c-0.285-1.683-0.755-2.785-1.412-3.311c-0.657-0.524-1.643-0.675-2.957-0.452l-1.735,0.294
		L61.768,123.38z"/>
	<path fill="#FFFFFF" d="M77.297,136.898l-4.82-28.475l13.094-2.216l0.721,4.259l-8.204,1.389l1.242,7.336l6.31-1.068l0.721,4.26
		l-6.31,1.068l1.415,8.36l8.756-1.482l0.721,4.259L77.297,136.898z"/>
	<path fill="#FFFFFF" d="M97.074,118.703l8.005-1.355l2.443,14.435l-2.366,0.4l-1.268-1.977c-0.59,0.993-1.198,1.752-1.825,2.277
		c-0.628,0.525-1.521,0.886-2.677,1.082c-1.946,0.329-3.633-0.047-5.06-1.132c-1.428-1.082-2.335-2.77-2.722-5.057l-2.483-14.671
		c-0.169-0.999-0.178-1.971-0.027-2.917c0.151-0.944,0.467-1.796,0.948-2.553c0.48-0.757,1.135-1.402,1.964-1.936
		c0.829-0.532,1.849-0.901,3.059-1.105c1.208-0.205,2.309-0.176,3.301,0.09c0.991,0.265,1.856,0.7,2.595,1.305
		c0.737,0.606,1.338,1.356,1.802,2.252c0.461,0.896,0.781,1.869,0.959,2.921l0.308,1.813l-4.653,0.788
		c-0.179-1.052-0.379-1.917-0.602-2.597c-0.224-0.678-0.488-1.201-0.793-1.569c-0.306-0.367-0.649-0.601-1.032-0.698
		c-0.381-0.097-0.809-0.105-1.282-0.025c-0.605,0.103-1.082,0.405-1.428,0.911c-0.347,0.505-0.418,1.362-0.214,2.572l2.477,14.632
		c0.156,0.92,0.45,1.621,0.883,2.101c0.433,0.481,1.07,0.65,1.912,0.508c0.999-0.169,1.645-0.588,1.936-1.261
		c0.293-0.671,0.318-1.717,0.078-3.137l-0.468-2.761l-3.115,0.527L97.074,118.703z"/>
	<path fill="#FFFFFF" d="M110.358,131.302l-4.819-28.474l4.89-0.828l4.82,28.475L110.358,131.302z"/>
	<path fill="#FFFFFF" d="M123.836,106.951c-0.156-0.596-0.354-1.082-0.592-1.461c-0.24-0.379-0.506-0.665-0.795-0.859
		c-0.291-0.194-0.59-0.32-0.896-0.375c-0.308-0.058-0.593-0.063-0.855-0.018c-0.788,0.133-1.353,0.479-1.69,1.035
		c-0.338,0.559-0.433,1.285-0.281,2.179c0.138,0.814,0.509,1.522,1.11,2.123c0.603,0.602,1.329,1.182,2.182,1.741
		c0.852,0.559,1.771,1.114,2.757,1.662c0.985,0.551,1.917,1.185,2.796,1.901c0.878,0.717,1.646,1.541,2.305,2.469
		c0.657,0.931,1.095,2.041,1.313,3.328c0.2,1.185,0.187,2.26-0.041,3.232c-0.228,0.972-0.624,1.823-1.19,2.554
		c-0.565,0.732-1.302,1.337-2.207,1.814c-0.907,0.479-1.926,0.813-3.057,1.004c-1.13,0.191-2.179,0.152-3.144-0.117
		c-0.964-0.269-1.818-0.713-2.557-1.331c-0.74-0.619-1.362-1.372-1.864-2.261s-0.871-1.867-1.105-2.937l4.54-1.458
		c0.35,1.429,0.849,2.452,1.494,3.073s1.363,0.864,2.152,0.73c0.841-0.142,1.487-0.481,1.938-1.017
		c0.45-0.536,0.604-1.224,0.462-2.066c-0.16-0.946-0.547-1.747-1.157-2.4c-0.611-0.653-1.343-1.26-2.194-1.819
		c-0.853-0.559-1.77-1.106-2.753-1.644s-1.912-1.15-2.786-1.841c-0.875-0.69-1.642-1.507-2.302-2.45
		c-0.659-0.943-1.104-2.099-1.336-3.467c-0.388-2.286-0.027-4.152,1.08-5.599c1.106-1.444,2.87-2.371,5.29-2.781
		c0.999-0.169,1.922-0.149,2.769,0.058c0.847,0.209,1.604,0.574,2.274,1.097c0.671,0.521,1.254,1.174,1.751,1.954
		c0.497,0.782,0.884,1.663,1.158,2.645L123.836,106.951z"/>
	<path fill="#FFFFFF" d="M133.637,102.453l-4.731,0.801l-0.721-4.259l14.355-2.43l0.721,4.259l-4.732,0.801l4.099,24.215
		l-4.892,0.828L133.637,102.453z"/>
	<path fill="#FFFFFF" d="M148.822,124.792l-4.82-28.474l13.095-2.216l0.721,4.259l-8.204,1.388l1.242,7.336l6.31-1.068l0.721,4.26
		l-6.31,1.068l1.415,8.36l8.756-1.482l0.721,4.259L148.822,124.792z"/>
	<path fill="#FFFFFF" d="M169.291,121.327l-4.892,0.828l-4.819-28.474l6.863-1.162c2.734-0.463,4.905-0.168,6.518,0.883
		c1.612,1.052,2.674,3.091,3.186,6.115c0.196,1.157,0.265,2.16,0.205,3.008c-0.06,0.849-0.205,1.584-0.438,2.204
		c-0.233,0.622-0.524,1.138-0.874,1.548c-0.351,0.41-0.72,0.744-1.108,0.998l6.323,12.196l-4.969,0.841l-5.467-11.204
		c-0.306,0.105-0.689,0.204-1.146,0.295c-0.459,0.092-0.91,0.175-1.357,0.25L169.291,121.327z M166.634,105.631l1.735-0.294
		c0.656-0.111,1.204-0.271,1.642-0.48c0.438-0.209,0.772-0.509,1.005-0.9c0.23-0.39,0.364-0.88,0.401-1.468
		c0.035-0.588-0.019-1.301-0.161-2.143c-0.285-1.683-0.755-2.786-1.412-3.311s-1.643-0.675-2.957-0.452l-1.734,0.293
		L166.634,105.631z"/>
	<path fill="#FFFFFF" d="M177.564,90.637l4.97-0.841l2.536,20.26l-3.233,0.548L177.564,90.637z M182.542,119.084l-0.788-4.653
		l4.654-0.788l0.788,4.653L182.542,119.084z"/>
</g>
</svg>
