<?xml version="1.0" encoding="utf-8"?>
<!-- Generator: Adobe Illustrator 15.1.0, SVG Export Plug-In . SVG Version: 6.00 Build 0)  -->
<!DOCTYPE svg PUBLIC "-//W3C//DTD SVG 1.1//EN" "http://www.w3.org/Graphics/SVG/1.1/DTD/svg11.dtd">
<svg version="1.1" id="Layer_1" xmlns="http://www.w3.org/2000/svg" xmlns:xlink="http://www.w3.org/1999/xlink" x="0px" y="0px"
	 width="300px" height="47px" viewBox="0 0 300 47" enable-background="new 0 0 300 47" xml:space="preserve">
<g>
	<g>
		<path fill="#333333" d="M21.222,38.113h-6.889L0,2.404h8.61l9.269,24.971l9.269-24.971h8.408L21.222,38.113z"/>
		<path fill="#333333" d="M49.685,37.859v-2.938c-1.874,2.077-4.457,3.445-8.205,3.445c-5.116,0-9.319-2.938-9.319-8.307v-0.102
			c0-5.926,4.507-8.661,10.94-8.661c2.735,0,4.711,0.456,6.635,1.114v-0.456c0-3.191-1.975-4.964-5.825-4.964
			c-2.938,0-5.015,0.557-7.496,1.469l-1.924-5.876c2.988-1.316,5.925-2.178,10.534-2.178c8.408,0,12.106,4.356,12.106,11.7v15.752
			H49.685z M49.837,26.919c-1.317-0.608-3.039-1.013-4.913-1.013c-3.292,0-5.319,1.315-5.319,3.748v0.102
			c0,2.076,1.723,3.292,4.204,3.292c3.596,0,6.028-1.976,6.028-4.762V26.919z"/>
		<path fill="#333333" d="M60.951,37.859V0.885h7.699v36.975H60.951z"/>
		<path fill="#333333" d="M72.471,37.859V0.885h7.698v36.975H72.471z"/>
		<path fill="#333333" d="M109.994,26.971H91.102c0.76,3.493,3.191,5.317,6.635,5.317c2.583,0,4.458-0.811,6.584-2.785l4.406,3.9
			c-2.532,3.139-6.178,5.063-11.092,5.063c-8.154,0-14.182-5.723-14.182-14.029v-0.101c0-7.75,5.521-14.132,13.422-14.132
			c9.066,0,13.22,7.041,13.22,14.74v0.101C110.096,25.804,110.045,26.261,109.994,26.971z M96.876,16.384
			c-3.191,0-5.268,2.279-5.875,5.774h11.598C102.144,18.713,100.118,16.384,96.876,16.384z"/>
		<path fill="#333333" d="M127.798,38.518c-2.076,5.521-4.305,7.598-8.915,7.598c-2.786,0-4.862-0.71-6.837-1.874l2.583-5.572
			c1.013,0.608,2.279,1.065,3.292,1.065c1.317,0,2.026-0.407,2.684-1.773l-10.636-27.25h8.154l6.18,18.487l5.925-18.487h8.003
			L127.798,38.518z"/>
	</g>
	<g>
		<path fill="#333333" d="M163.837,38.439c-10.122,0-17.613-8.046-17.613-18.218V20.12c0-10.02,7.491-18.32,17.714-18.32
			c6.325,0,10.121,2.328,13.765,5.668l-1.872,1.923c-3.088-2.986-6.629-5.212-11.944-5.212c-8.502,0-14.929,6.933-14.929,15.84
			v0.101c0,8.958,6.529,15.942,14.981,15.942c5.11,0,8.604-1.974,12.195-5.517l1.771,1.722
			C174.161,35.96,170.112,38.439,163.837,38.439z"/>
		<path fill="#333333" d="M201.005,37.833V22.499c0-5.314-2.986-8.806-8.198-8.806c-5.062,0-8.958,3.846-8.958,9.21v14.93h-2.479
			V0.889h2.479v15.942c1.722-3.037,4.605-5.416,9.312-5.416c6.529,0,10.325,4.454,10.325,10.628v15.79H201.005z"/>
		<path fill="#333333" d="M228.416,37.833v-4.809c-1.721,3.037-4.605,5.415-9.313,5.415c-6.527,0-10.323-4.452-10.323-10.627v-15.79
			h2.479v15.335c0,5.313,2.985,8.806,8.199,8.806c5.061,0,8.957-3.847,8.957-9.212V12.022h2.479v25.811H228.416z"/>
		<path fill="#333333" d="M250.65,14.35c-5.974,0-11.186,4.505-11.186,12.906v10.577h-2.479V12.022h2.479v7.338
			c2.024-4.605,6.326-7.945,11.438-7.743v2.732H250.65z"/>
		<path fill="#333333" d="M263.965,38.439c-7.438,0-13.158-6.173-13.158-13.41v-0.102c0-7.237,5.77-13.513,13.158-13.513
			c4.858,0,7.896,2.227,10.325,4.757l-1.771,1.822c-2.228-2.277-4.759-4.251-8.604-4.251c-5.87,0-10.425,4.91-10.425,11.083v0.102
			c0,6.226,4.707,11.185,10.628,11.185c3.643,0,6.478-1.872,8.653-4.301l1.721,1.518C271.86,36.315,268.723,38.439,263.965,38.439z"
			/>
		<path fill="#333333" d="M297.521,37.833V22.499c0-5.314-2.986-8.806-8.199-8.806c-5.061,0-8.958,3.846-8.958,9.21v14.93h-2.479
			V0.889h2.479v15.942c1.721-3.037,4.605-5.416,9.313-5.416c6.528,0,10.324,4.454,10.324,10.628v15.79H297.521z"/>
	</g>
</g>
</svg>
